<svg xmlns="http://www.w3.org/2000/svg" width="26" height="26" id="mail">
  <path style="line-height:normal;text-indent:0;text-align:start;text-decoration-line:none;text-transform:none;block-progression:tb" d="M13 0C5.826 0 0 5.826 0 13s5.826 13 13 13 13-5.826 13-13S20.174 0 13 0zm0 1.002c6.633 0 12 5.365 12 11.998 0 6.633-5.367 12-12 12S1 19.633 1 13 6.367 1.002 13 1.002zM7 9v1.191l6.5 3.217 6.5-3.215V9H7zm0 2.309V17h13v-5.691l-6.277 3.105a.507.507 0 0 1-.444 0L7 11.31z" color="#000" font-family="sans-serif" font-weight="400" overflow="visible" fill="white"></path>
</svg>
